<svg viewBox="0 0 512 512" width="64" height="64" aria-hidden="true" xmlns="http://www.w3.org/2000/svg"><defs><radialGradient id="scribe-report-mark-sun" cx="50%" cy="50%" r="50%"><stop offset="0%" stop-color="#ffe082"/><stop offset="60%" stop-color="#ffb300"/><stop offset="100%" stop-color="#e65100"/></radialGradient><clipPath id="scribe-report-mark-disc"><circle cx="256" cy="256" r="240"/></clipPath></defs><circle cx="256" cy="256" r="240" fill="url(#scribe-report-mark-sun)"/><g clip-path="url(#scribe-report-mark-disc)"><g fill="transparent" stroke="transparent"><g opacity="0.7"><path d="M40,240 C60,110 170,40 250,90 C320,130 330,210 260,280 C200,340 50,340 40,240 Z" opacity="0.6"/><path d="M290,130 C360,60 460,110 470,190 C480,270 410,350 330,320 C260,290 230,190 290,130 Z" opacity="0.7"/><path d="M390,280 C470,250 510,300 480,380 C450,440 380,410 390,280 Z" opacity="0.5"/><path d="M130,350 C180,290 260,350 230,430 C200,510 60,450 130,350 Z" opacity="0.5"/><circle cx="230" cy="430" r="18" fill="transparent" stroke-width="4" opacity="0.8"/><circle cx="170" cy="190" r="12" fill="transparent" stroke-width="3" opacity="0.7"/><circle cx="90" cy="230" r="8" opacity="0.8"/></g></g><g transform="translate(250,240) rotate(-40)" fill="#1a1a2e" stroke="#1a1a2e"><line x1="-32" y1="-8" x2="-160" y2="-40" stroke-width="6" stroke-linecap="round"/><circle cx="-160" cy="-40" r="10"/><line x1="-32" y1="16" x2="-125" y2="62" stroke-width="8" stroke-linecap="round"/><rect x="-141" y="38" width="32" height="60" rx="4" transform="rotate(20,-125,62)"/><line x1="-16" y1="-40" x2="-46" y2="-92" stroke-width="7" stroke-linecap="round"/><rect x="-70" y="-108" width="48" height="28" rx="4"/><circle cx="-56" cy="-98" r="8"/><circle cx="-36" cy="-98" r="6"/><path d="M48,-108 Q128,-78 128,0 Q128,78 48,108" stroke-width="5" stroke-linejoin="round"/><line x1="58" y1="-50" x2="108" y2="0" stroke-width="5"/><line x1="58" y1="50" x2="108" y2="0" stroke-width="5"/><line x1="48" y1="0" x2="108" y2="0" stroke-width="5"/><circle cx="110" cy="0" r="14"/><polygon points="-16,-40 48,-40 62,-24 62,24 48,40 -16,40 -30,24 -30,-24"/></g></g></svg>
