<svg xmlns="http://www.w3.org/2000/svg" viewBox="0 0 1200 675" role="img" aria-labelledby="title desc">
  <title id="title">Cal.diy Repository Health</title>
  <desc id="desc">Repository health report gallery preview for Cal.com.</desc>
  <rect width="1200" height="675" rx="0" fill="hsl(241 46% 16%)"/>
  <rect x="48" y="42" width="1104" height="591" rx="20" fill="hsl(241 48% 95%)"/>
  <rect x="48" y="42" width="1104" height="58" rx="20" fill="hsl(241 54% 22%)"/>
  <rect x="48" y="78" width="1104" height="24" fill="hsl(241 54% 22%)"/>
  <rect x="86" y="63" width="104" height="16" rx="8" fill="hsl(285 82% 58%)"/>
  <text x="214" y="80" font-family="Inter, Arial, sans-serif" font-size="20" font-weight="700" fill="hsl(241 58% 94%)">Repository Health</text>
  <rect x="86" y="128" width="204" height="453" rx="14" fill="hsl(241 36% 90%)"/>
  <text x="112" y="172" font-family="Inter, Arial, sans-serif" font-size="22" font-weight="800" fill="hsl(241 52% 18%)">Scribe</text>
  <rect x="112" y="210" width="142" height="12" rx="6" fill="hsl(241 26% 72%)"/>
  <rect x="112" y="250" width="102" height="12" rx="6" fill="hsl(241 26% 78%)"/>
  <rect x="112" y="290" width="154" height="12" rx="6" fill="hsl(241 26% 78%)"/>
  <rect x="112" y="330" width="124" height="12" rx="6" fill="hsl(241 26% 78%)"/>
  <rect x="320" y="128" width="786" height="453" rx="14" fill="hsl(241 44% 99%)"/>
  <text x="356" y="176" font-family="Inter, Arial, sans-serif" font-size="25" font-weight="800" fill="hsl(241 52% 15%)">Repository health report</text>
  <text x="356" y="212" font-family="Inter, Arial, sans-serif" font-size="18" fill="hsl(241 30% 34%)">Cal.diy Repository Health</text>
  <rect x="356" y="246" width="106" height="68" rx="10" fill="hsl(285 58% 94%)" stroke="hsl(285 34% 76%)"/>
  <text x="374" y="276" font-family="Inter, Arial, sans-serif" font-size="14" font-weight="700" fill="hsl(241 32% 32%)">Signals</text>
  <text x="374" y="300" font-family="Inter, Arial, sans-serif" font-size="22" font-weight="800" fill="hsl(241 52% 18%)">Health</text><rect x="486" y="246" width="106" height="68" rx="10" fill="hsl(285 58% 94%)" stroke="hsl(285 34% 76%)"/>
  <text x="504" y="276" font-family="Inter, Arial, sans-serif" font-size="14" font-weight="700" fill="hsl(241 32% 32%)">Exports</text>
  <text x="504" y="300" font-family="Inter, Arial, sans-serif" font-size="22" font-weight="800" fill="hsl(241 52% 18%)">2</text><rect x="616" y="246" width="106" height="68" rx="10" fill="hsl(285 58% 94%)" stroke="hsl(285 34% 76%)"/>
  <text x="634" y="276" font-family="Inter, Arial, sans-serif" font-size="14" font-weight="700" fill="hsl(241 32% 32%)">Locales</text>
  <text x="634" y="300" font-family="Inter, Arial, sans-serif" font-size="22" font-weight="800" fill="hsl(241 52% 18%)">26</text>
  <rect x="356" y="346" width="386" height="176" rx="12" fill="hsl(241 32% 96%)" stroke="hsl(241 28% 82%)"/>
  <text x="382" y="380" font-family="Inter, Arial, sans-serif" font-size="17" font-weight="800" fill="hsl(241 48% 20%)">Report findings</text>
  <rect x="382" y="394" width="16" height="16" rx="4" fill="hsl(142 70% 45%)"/>
  <text x="410" y="410" font-family="Inter, Arial, sans-serif" font-size="16" fill="hsl(241 32% 25%)">Dependency posture</text>
  <text x="646" y="410" font-family="Inter, Arial, sans-serif" font-size="14" font-weight="800" fill="hsl(241 34% 31%)">tracked</text><rect x="382" y="422" width="16" height="16" rx="4" fill="hsl(285 70% 45%)"/>
  <text x="410" y="438" font-family="Inter, Arial, sans-serif" font-size="16" fill="hsl(241 32% 25%)">Risk clusters</text>
  <text x="646" y="438" font-family="Inter, Arial, sans-serif" font-size="14" font-weight="800" fill="hsl(241 34% 31%)">ranked</text><rect x="382" y="450" width="16" height="16" rx="4" fill="hsl(142 70% 45%)"/>
  <text x="410" y="466" font-family="Inter, Arial, sans-serif" font-size="16" fill="hsl(241 32% 25%)">Code ownership</text>
  <text x="646" y="466" font-family="Inter, Arial, sans-serif" font-size="14" font-weight="800" fill="hsl(241 34% 31%)">mapped</text><rect x="382" y="478" width="16" height="16" rx="4" fill="hsl(142 70% 45%)"/>
  <text x="410" y="494" font-family="Inter, Arial, sans-serif" font-size="16" fill="hsl(241 32% 25%)">Follow-up tickets</text>
  <text x="646" y="494" font-family="Inter, Arial, sans-serif" font-size="14" font-weight="800" fill="hsl(241 34% 31%)">ready</text>
  <rect x="776" y="346" width="294" height="176" rx="12" fill="hsl(285 44% 94%)" stroke="hsl(285 32% 78%)"/>
  <text x="802" y="380" font-family="Inter, Arial, sans-serif" font-size="17" font-weight="800" fill="hsl(241 48% 20%)">Report package</text>
  <text x="802" y="410" font-family="JetBrains Mono, Menlo, monospace" font-size="16" fill="hsl(241 28% 28%)">data/manifest.js</text><text x="802" y="438" font-family="JetBrains Mono, Menlo, monospace" font-size="16" fill="hsl(241 28% 28%)">data/findings.json</text><text x="802" y="466" font-family="JetBrains Mono, Menlo, monospace" font-size="16" fill="hsl(241 28% 28%)">exports/report.md</text><text x="802" y="494" font-family="JetBrains Mono, Menlo, monospace" font-size="16" fill="hsl(241 28% 28%)">search-index.en-US.js</text>
  <text x="356" y="552" font-family="Inter, Arial, sans-serif" font-size="18" font-weight="700" fill="hsl(241 46% 22%)">HTML / Markdown</text>
</svg>
